 <svg  version="1.0" xmlns="http://www.w3.org/2000/svg"  width="576.000000pt" height="576.000000pt" viewBox="0 0 576.000000 576.000000"  preserveAspectRatio="xMidYMid meet">  <g transform="translate(0.000000,576.000000) scale(0.100000,-0.100000)" fill="#204b33" stroke="none"> <path d="M2765 4164 c-16 -3 -55 -13 -85 -24 -49 -17 -78 -30 -141 -66 -29 -17 -110 -95 -146 -140 -71 -90 -123 -240 -123 -354 0 -138 98 -335 292 -587 43 -56 78 -107 78 -113 0 -6 -12 -15 -27 -21 -67 -25 -115 -55 -140 -87 -14 -19 -38 -38 -54 -44 -43 -15 -33 -68 12 -68 10 0 21 -9 24 -20 9 -29 74 -89 115 -107 59 -26 132 -44 200 -51 62 -7 65 -8 70 -37 4 -24 10 -30 30 -30 20 0 26 6 30 30 5 29 8 30 70 37 142 14 258 67 299 135 14 23 33 43 42 43 41 1 53 56 14 66 -14 3 -40 23 -58 44 -30 36 -78 66 -139 89 -33 13 -35 30 -7 62 12 13 47 58 78 99 174 228 271 428 271 560 0 113 -52 263 -122 354 -40 50 -116 124 -143 137 -11 5 -35 18 -53 29 -69 42 -144 61 -252 65 -58 2 -118 1 -135 -1z m255 -170 c103 -40 201 -128 250 -224 21 -42 50 -155 50 -195 0 -38 -27 -139 -52 -192 -41 -90 -152 -187 -258 -226 -64 -24 -219 -23 -280 1 -86 34 -127 61 -182 121 -61 65 -87 114 -112 207 -20 76 -20 101 0 183 44 176 182 311 354 345 47 9 185 -3 230 -20z m-303 -941 c21 -14 50 -17 154 -17 107 0 131 2 147 17 19 17 44 22 55 11 10 -10 -13 -45 -25 -38 -18 11 -28 -19 -12 -37 14 -15 12 -22 -12 -70 -15 -30 -38 -64 -51 -76 -13 -12 -23 -29 -23 -38 0 -8 -4 -15 -9 -15 -4 0 -21 -18 -36 -40 -31 -45 -59 -54 -49 -16 4 17 2 24 -8 23 -16 -2 -109 114 -135 167 -13 28 -14 41 -5 60 8 19 8 27 -2 35 -7 6 -15 8 -19 5 -3 -3 -10 3 -16 14 -18 34 5 42 46 15z m16 -261 l28 -29 -41 -27 c-65 -43 -48 -82 46 -111 120 -36 294 3 294 66 0 11 -16 29 -35 41 -41 27 -43 37 -10 68 30 28 61 24 131 -18 39 -23 49 -34 47 -53 -1 -13 3 -36 9 -52 13 -34 3 -48 -60 -78 -51 -24 -174 -59 -210 -59 -12 0 -31 6 -42 12 -16 10 -24 10 -40 0 -11 -6 -30 -12 -42 -12 -36 0 -159 35 -210 59 -61 30 -74 45 -61 74 6 13 9 35 6 49 -5 28 3 35 82 77 53 28 76 26 108 -7z"/> <path d="M2807 3865 c-58 -54 -17 -155 63 -155 23 0 43 9 62 27 59 57 20 153 -62 153 -24 0 -44 -8 -63 -25z"/> <path d="M2619 3741 c-23 -23 -29 -38 -29 -71 0 -83 84 -119 149 -64 42 35 42 80 0 129 -40 45 -78 47 -120 6z"/> <path d="M3004 3736 c-46 -46 -47 -93 -3 -130 53 -45 119 -31 145 30 12 29 12 39 0 68 -30 71 -89 85 -142 32z"/> <path d="M2820 3592 c-73 -36 -126 -149 -101 -214 14 -38 67 -58 151 -58 122 0 169 38 154 124 -11 67 -57 129 -113 152 -42 17 -48 17 -91 -4z"/> <path d="M1827 2148 c-17 -10 -11 -569 6 -580 7 -5 26 -5 42 -1 17 4 53 8 80 8 101 2 111 5 144 37 18 18 38 44 43 58 13 32 12 368 0 401 -13 32 -28 44 -77 59 -50 15 -222 28 -238 18z m202 -93 c19 -18 30 -91 30 -204 1 -116 -13 -167 -50 -187 -33 -17 -75 -18 -85 -3 -3 6 -6 97 -5 202 2 168 4 194 19 205 19 14 69 7 91 -13z"/> <path d="M1507 2133 c-14 -16 -24 -65 -47 -225 -4 -31 -11 -61 -15 -68 -4 -6 -11 -35 -15 -63 -5 -29 -15 -71 -24 -95 -9 -23 -17 -57 -18 -75 l-3 -32 50 0 50 0 3 42 c4 53 23 65 95 61 l52 -3 7 -44 c9 -52 19 -61 71 -61 49 0 54 15 34 104 -8 39 -23 107 -32 151 -8 44 -22 109 -30 145 -8 36 -15 78 -15 93 0 15 -7 41 -15 57 -15 28 -19 30 -74 30 -42 0 -62 -5 -74 -17z m86 -149 c4 -16 12 -63 17 -104 5 -41 12 -85 16 -97 7 -27 -19 -37 -72 -27 l-36 7 6 46 c12 98 26 187 31 199 8 21 28 8 38 -24z"/> <path d="M2269 2130 c-20 -11 -40 -27 -44 -37 -4 -10 -7 -112 -5 -228 3 -276 3 -278 145 -290 73 -6 82 -5 108 15 54 43 61 75 58 289 -2 199 -6 222 -45 253 -31 26 -168 24 -217 -2z m154 -72 c14 -11 17 -38 18 -196 1 -163 -1 -186 -17 -203 -21 -23 -68 -18 -97 10 -21 20 -23 48 -18 244 3 95 7 132 18 143 18 17 73 18 96 2z"/> <path d="M2615 2140 c-4 -6 -7 -133 -7 -282 l-1 -273 34 -7 c19 -4 45 -5 57 -2 23 5 24 8 21 74 -2 38 0 72 4 77 4 4 43 26 85 48 98 51 117 83 117 200 0 91 -14 121 -71 154 -29 17 -52 21 -134 21 -56 0 -102 -4 -105 -10z m202 -100 c28 -55 8 -153 -39 -192 -61 -51 -68 -39 -68 107 0 85 3 106 16 113 26 15 77 -1 91 -28z m-142 -223 c10 -8 15 -19 11 -26 -6 -9 -13 -8 -27 5 -33 30 -20 47 16 21z"/> <path d="M2940 2115 c0 -41 24 -58 68 -49 18 4 32 1 37 -5 4 -7 7 -119 8 -249 l2 -237 40 -3 c74 -5 74 -7 65 248 -6 162 -5 229 3 238 8 10 24 12 54 7 39 -6 44 -4 52 18 5 14 7 34 4 46 -5 20 -11 21 -169 21 l-164 0 0 -35z"/> <path d="M3362 2137 c-6 -7 -18 -53 -27 -102 -42 -237 -51 -273 -90 -401 -16 -50 -6 -64 41 -64 55 0 64 8 64 56 0 51 13 57 96 52 l49 -3 5 -50 5 -50 55 0 c65 0 64 -4 30 145 -12 52 -24 109 -26 125 -5 28 -16 82 -45 215 -19 87 -21 90 -88 90 -36 0 -63 -5 -69 -13z m128 -119 c0 -16 -3 -19 -11 -11 -6 6 -8 16 -5 22 11 17 16 13 16 -11z m-36 -80 c9 -46 18 -105 19 -133 l2 -50 -35 -3 c-60 -5 -71 12 -60 93 28 199 47 223 74 93z"/> <path d="M3674 2136 c-3 -7 -4 -135 -2 -282 l3 -269 54 -3 54 -3 -6 66 c-7 77 0 87 101 135 84 40 96 65 97 199 l0 105 -43 33 c-43 33 -45 33 -148 33 -80 0 -106 -3 -110 -14z m206 -81 c17 -10 12 -143 -6 -175 -18 -29 -79 -64 -95 -55 -5 4 -9 58 -9 121 0 110 1 115 22 123 21 8 64 1 88 -14z m-137 -272 c-4 -10 -9 -11 -19 -2 -15 12 -19 41 -7 53 10 9 32 -35 26 -51z"/> <path d="M4036 1868 c-7 -306 -9 -298 50 -298 55 0 66 17 55 85 -9 58 -8 61 17 82 15 12 31 22 36 23 26 1 99 46 120 74 30 39 37 73 37 159 0 81 -14 108 -71 137 -31 16 -59 20 -138 20 l-99 0 -7 -282z m195 192 c16 -9 19 -22 19 -88 0 -83 -9 -102 -63 -136 -51 -31 -57 -19 -57 107 0 63 3 117 7 120 10 11 72 8 94 -3z m-130 -247 c12 -33 -4 -54 -20 -25 -10 18 -6 52 5 52 3 0 9 -12 15 -27z"/> </g> </svg> 